<?xml version="1.0" encoding="utf-8"?>
<!-- Generator: Adobe Illustrator 22.1.0, SVG Export Plug-In . SVG Version: 6.00 Build 0)  -->
<svg version="1.1" id="Layer_1" xmlns="http://www.w3.org/2000/svg" xmlns:xlink="http://www.w3.org/1999/xlink" x="0px" y="0px"
	 width="68px" height="68px" viewBox="0 0 68 68" style="enable-background:new 0 0 68 68;" xml:space="preserve">
<style type="text/css">
	.st0{fill:none;stroke:#333333;stroke-width:2.0636;stroke-linecap:round;stroke-linejoin:round;stroke-miterlimit:10;}
	.st1{fill:none;stroke:#333333;stroke-width:1.9604;stroke-linecap:round;stroke-linejoin:round;stroke-miterlimit:10;}
	.st2{fill:#333333;}
</style>
<path class="st0" d="M46.8,45.2l-9.5,4.3h-0.1l6.3,4.2L38,59.8c-1.6,1.7-1.4,4.5,0.3,6.1c0.8,0.8,1.8,1.1,2.9,1.1
	c1.1,0,2.3-0.5,3.2-1.4l8.3-9.2c1.6-1.7,1.4-4.4-0.2-6.1L46.8,45.2z"/>
<path class="st0" d="M24.5,53.9l6.3-4.2l-9.5-4.3l-5.6,5.1c-1.7,1.5-1.9,4.2-0.3,6l8.3,9.2c0.8,0.9,2,1.4,3.2,1.4c1,0,2-0.4,2.9-1.1
	c1.7-1.6,1.9-4.3,0.3-6.1L24.5,53.9z"/>
<g>
	<path class="st1" d="M57.9,21.5c-0.5-1.6-2.2-2.4-3.7-1.9l-14.8,4.9H28.5l-14.7-4.8c-1.6-0.5-3.3,0.4-3.7,1.9
		c-0.5,1.6,0.4,3.3,1.9,3.7l11.5,5.4v8.6h21v-8.5L56,25.4C57.5,24.8,58.3,23.1,57.9,21.5z"/>
	<g>
		<path class="st2" d="M34,2c4.9,0,8.9,4,8.9,8.9s-4,8.9-8.9,8.9s-8.9-4-8.9-8.9C25.1,5.9,29.1,2,34,2 M34,0
			c-6,0-10.8,4.8-10.8,10.8S28,21.6,34,21.6s10.8-4.8,10.8-10.8S40,0,34,0L34,0z"/>
	</g>
</g>
</svg>
