<?xml version="1.0" encoding="utf-8"?>
<!-- Generator: Adobe Illustrator 22.0.1, SVG Export Plug-In . SVG Version: 6.00 Build 0)  -->
<svg version="1.1" id="Layer_1" xmlns="http://www.w3.org/2000/svg" xmlns:xlink="http://www.w3.org/1999/xlink" x="0px" y="0px"
	 width="68px" height="68px" viewBox="0 0 68 68" style="enable-background:new 0 0 68 68;" xml:space="preserve">
<style type="text/css">
	.st0{fill:none;stroke:#333333;stroke-width:2.0584;stroke-linecap:round;stroke-linejoin:round;stroke-miterlimit:10;}
</style>
<circle class="st0" cx="20.9" cy="9.5" r="8.4"/>
<path class="st0" d="M45.3,37.7l-6.1-10.2l0,0c-1.7-3.4-5.1-5.7-9.6-5.7H11.8c-5.9,0-10.7,4.8-10.7,10.9v14.1v4.4
	c0,4.1,3.3,7.4,7.5,7.4V35h4.7v31.9"/>
<path class="st0" d="M31.7,66.9V35h3.4l3.4,5.6"/>
<path class="st0" d="M49.1,35.7c1.1,0.7,2.3,1.1,3.6,1.1c1.4,0,2.5-0.4,3.6-1.1c2-1.3,3.3-3.4,3.3-5.9c0-3.9-3.1-7-7-7s-7,3.1-7,7
	C45.8,32.4,47.2,34.6,49.1,35.7z"/>
<path class="st0" d="M57.4,66.9v-16h4.3v8.9v1.5v5.3c2.9,0,5.2-2.3,5.2-5.3v-1.6v0.2V49.5c0-4-3.1-7.9-7.7-7.9H48h-1.5
	c-2.2,0-4.2,1-5.6,2.4c-1.3,1.4-2.1,3.3-2.1,5.3v10.1v1.9c-0.1,3,2.3,5.3,5.2,5.3V50.9h4.1h0.2v0.3v15.7"/>
</svg>
