<?xml version="1.0" encoding="utf-8"?>
<!-- Generator: Adobe Illustrator 22.1.0, SVG Export Plug-In . SVG Version: 6.00 Build 0)  -->
<svg version="1.1" id="Capa_1" xmlns="http://www.w3.org/2000/svg" xmlns:xlink="http://www.w3.org/1999/xlink" x="0px" y="0px"
	 width="512px" height="512px" viewBox="0 0 512 512" style="enable-background:new 0 0 512 512;" xml:space="preserve">
<style type="text/css">
	.st0{fill:#666666;}
</style>
<g>
	<g>
		<path class="st0" d="M503,214.9c2.8-10.3,2.9-20.2,0.4-29.6c-11.6-43.2-73.8-54.2-118.5-55.8C385.4,56.1,367,10.8,332.7,1.6
			c-34.9-9.4-79.3,21.6-119.8,83.2c-42.3-24.1-79.5-36-106.4-34.2C99.1,40.4,87,34.1,74.2,34.1c-22,0-40,17.9-40,40
			c0,12.9,6.3,24.9,16.5,32.3c-1.9,26.9,10.1,64.1,34.2,106.4C23.4,253.3-7.6,297.7,1.7,332.6c8.7,32.6,50.7,51,118.6,52.1
			c-0.1,5.8-0.1,11.3,0.2,16.5c-15.6,5.5-26.4,20.3-26.4,37.6c0,22,17.9,40,40,40c2.4,0,4.7-0.2,7-0.6c9.9,17,23,28,38.3,32.1
			c45.7,12.3,94.2-44.1,120.1-83.6c41.9,23.3,111.4,51.8,145.2,18c33.9-33.9,5.2-103.6-18.2-145.5c11.2-7.3,21.4-14.7,30.3-22.1
			c4.8,1.9,9.8,3,15.1,3c22,0,40-17.9,40-40C511.9,230.8,508.7,221.9,503,214.9z M151.5,305c8.7,9.9,17.7,19.5,26.9,28.7
			c8.5,8.5,17.3,16.8,26.4,24.8c-21.9,3.3-43.3,5.4-63,6.1C143.4,347.5,146.6,327.9,151.5,305z M141.2,261.1
			c-10.6-13.8-20.4-27.8-29.1-41.7c15-8.9,30.9-17.1,47.7-24.5c-3.7,10.8-7,21.7-9.9,32.6C146.6,239.8,143.7,250.8,141.2,261.1z
			 M192.5,319.6c-12.3-12.3-24.2-25.4-35.5-38.8c3.4-14.3,7.3-29.7,12.2-48c4.3-16.2,9.6-32.3,15.6-48c15.7-6,31.9-11.2,48-15.6
			c16.5-4.4,33-8.1,49.4-11.1c13,11,25.6,22.5,37.5,34.4c12,12,23.6,24.7,34.6,37.8c-3.1,16.3-6.9,32.8-11.3,49.1
			c-4.3,16.1-9.5,32.1-15.5,47.8c-16,6.2-32.2,11.5-48.1,15.8c-16.3,4.4-32.8,8.2-49.1,11.3C217.2,343.2,204.5,331.6,192.5,319.6z
			 M307.9,153.8c19.6-2.7,38.5-4.2,56.4-4.5c-0.9,17.6-2.8,36.1-5.7,55.3c-8-9-16.3-17.9-24.8-26.4
			C325.5,169.9,316.8,161.8,307.9,153.8z M362.2,284.4c3-11.3,5.8-22.7,8.2-34c10.6,13.9,20.3,28,29,42c-14.8,8.7-30.6,16.9-47,24.2
			C356.1,306,359.4,295.2,362.2,284.4z M280.9,37.1c12.5-9.7,30.7-20.5,46.7-16.2c24,6.4,37.7,46.7,37.4,108.4
			c-24.2,0.4-50.1,2.8-77.1,7.4c-19.1-15.6-38.4-29.5-57.7-41.6C246.5,70.3,263.9,50.4,280.9,37.1z M219.5,112
			c14.1,8.9,28.3,18.7,42.4,29.6c-11.4,2.4-22.9,5.1-34.2,8.2c-10.9,2.9-21.8,6.2-32.6,9.9C202.4,143,210.6,127,219.5,112z
			 M54.2,74.1c0-11,9-20,20-20c10.8,0,20,8.8,20,20c0,11-9,20-20,20C63.1,94.1,54.2,85,54.2,74.1z M70.5,113.9
			c24.9,2.2,45.7-18.5,43.5-43.5c22.2,0.5,53.4,11.5,88.3,31.4c-12.4,20.9-23.4,43.5-33,67.4c-24,9.6-46.6,20.7-67.4,33
			C82,167.2,71,136.1,70.5,113.9z M21,327.5c-4.3-16,6.4-34.2,16.2-46.7c13.2-16.9,33.1-34.4,57.9-50.8
			c11.7,18.7,25.1,37.4,40.1,55.8c-7.1,31-11.6,57-13.6,79C64.5,363.9,27.1,350.2,21,327.5z M134.1,458.8c-11,0-20-9-20-20
			c0-11.1,8.9-20,20-20c11,0,20,9,20,20C154.1,450,145.1,458.8,134.1,458.8z M231.4,474.7c-12.5,9.8-30.8,20.6-46.8,16.3
			c-9.7-2.6-18.2-9.7-25.2-21.2c9.2-7.5,14.7-18.8,14.7-31c0-19.9-14.6-36.4-33.6-39.5c-0.2-4.6-0.3-9.5-0.1-14.8
			c26.3-0.8,54.6-3.8,84.3-9.1c19,15.4,38.3,29.2,57.6,41C265.8,441.4,248.4,461.4,231.4,474.7z M292.9,399.6
			c-14.1-8.7-28.3-18.5-42.4-29.2c11.3-2.5,22.7-5.2,34-8.2c10.8-2.9,21.8-6.3,32.7-10C309.8,368.8,301.7,384.6,292.9,399.6z
			 M430.6,430.5c-18.1,18.1-64.9,9.9-120.5-20.8c12.3-20.8,23.3-43.4,32.8-67.2c23.2-9.4,45.9-20.6,66.6-32.8
			C440.4,365.4,448.8,412.3,430.6,430.5z M440.4,264.6c-7.2,5.7-15.2,11.5-24,17.3c-11.8-19.2-25.5-38.4-40.8-57.3
			c4.7-26.2,7.6-51.4,8.8-75.1c56.3,2,93.3,17,99.7,41c1,3.7,1.3,7.7,1,11.7c-4.2-1.5-8.6-2.2-13.1-2.2c-22,0-40,17.9-40,40
			C432,249.1,435,257.7,440.4,264.6z M471.9,260c-10.9,0-20-8.8-20-20c0-11,9-20,20-20c11,0,20,9,20,20C491.9,251,483,260,471.9,260
			z"/>
	</g>
</g>
<g>
	<g>
		<path class="st0" d="M256.1,206c-27.6,0-50,22.4-50,50c0,27.6,22.4,50,50,50s50-22.4,50-50C306,228.4,283.6,206,256.1,206z
			 M256.1,285.9c-16.5,0-30-13.5-30-30s13.4-30,30-30c16.5,0,30,13.4,30,30C286,272.5,272.6,285.9,256.1,285.9z"/>
	</g>
</g>
</svg>
