<?xml version="1.0" encoding="utf-8"?>
<!-- Generator: Adobe Illustrator 22.1.0, SVG Export Plug-In . SVG Version: 6.00 Build 0)  -->
<svg version="1.1" id="Layer_2" xmlns="http://www.w3.org/2000/svg" xmlns:xlink="http://www.w3.org/1999/xlink" x="0px" y="0px"
	 width="68px" height="68px" viewBox="0 0 68 68" style="enable-background:new 0 0 68 68;" xml:space="preserve">
<style type="text/css">
	.st0{fill:#333333;stroke:#FFFFFF;stroke-width:0.5669;stroke-miterlimit:10;}
</style>
<g>
	<path class="st0" d="M16,0.2c-2.4,0-4.3,2-4.3,4.3H8.1c0,0-0.1,0-0.1,0C7.2,4.5,6.6,5.2,6.6,5.9v22.3c0,9.1,7,16.5,15.8,17.3v3.8
		c0,10.2,7.7,18.5,17.3,18.5S57,59.5,57,49.3V41c2.5-0.6,4.3-2.9,4.3-5.6c0-3.2-2.6-5.8-5.8-5.8c-3.2,0-5.8,2.6-5.8,5.8
		c0,2.7,1.8,4.9,4.3,5.6v8.3c0,8.8-6.5,15.7-14.4,15.7s-14.4-6.9-14.4-15.7v-3.8c8.9-0.7,15.8-8.1,15.8-17.2V6
		c0-0.8-0.6-1.4-1.4-1.4h-3.6c0-2.4-2-4.3-4.3-4.3s-4.3,2-4.3,4.3v2.9c0,2.4,2,4.3,4.3,4.3s4.3-2,4.3-4.3h2.2v20.8
		c0,8-6.4,14.4-14.4,14.4c-8,0-14.4-6.4-14.4-14.4V7.4h2.2c0,2.4,2,4.3,4.3,4.3s4.3-2,4.3-4.3V4.5C20.3,2.1,18.4,0.2,16,0.2z M16,3
		c0.8,0,1.4,0.6,1.4,1.4v2.9c0,0.8-0.6,1.4-1.4,1.4c-0.8,0-1.4-0.6-1.4-1.4V4.5C14.6,3.7,15.2,3,16,3z M31.8,3.1
		c0.8,0,1.4,0.6,1.4,1.4v2.9c0,0.8-0.6,1.4-1.4,1.4c-0.8,0-1.4-0.6-1.4-1.4V4.5C30.4,3.7,31,3.1,31.8,3.1z M55.6,32.6
		c1.6,0,2.9,1.3,2.9,2.9c0,1.6-1.3,2.9-2.9,2.9s-2.9-1.3-2.9-2.9C52.7,33.8,54,32.6,55.6,32.6z"/>
</g>
</svg>
