<?xml version="1.0" encoding="utf-8"?>
<!-- Generator: Adobe Illustrator 22.0.1, SVG Export Plug-In . SVG Version: 6.00 Build 0)  -->
<svg version="1.1" id="Layer_1" xmlns="http://www.w3.org/2000/svg" xmlns:xlink="http://www.w3.org/1999/xlink" x="0px" y="0px"
	 width="68px" height="68px" viewBox="0 0 68 68" style="enable-background:new 0 0 68 68;" xml:space="preserve">
<style type="text/css">
	.st0{fill:none;stroke:#333333;stroke-width:2.1047;stroke-miterlimit:10;}
	.st1{display:none;}
	.st2{display:inline;fill:#F6921E;}
</style>
<g>
	<path class="st0" d="M34,20.2c4.5,0,8-3.6,8-8s-3.6-8-8-8s-8,3.6-8,8S29.5,20.2,34,20.2z"/>
	<path class="st0" d="M44.8,68V33.5l20.9-20.9c1.6-1.7,1.5-4.3-0.2-5.8c-1.7-1.6-4.3-1.6-5.8,0.1l-19.1,20H27.5L8.2,6.9
		C6.7,5.2,4,5.1,2.4,6.8C0.7,8.4,0.6,11,2.2,12.6l20.9,21V68"/>
	<path class="st0" d="M32,68v-9.5h3.7V68"/>
</g>
<g id="Layer_2_1_" class="st1">
	<path class="st2" d="M38.5,35c4,0,7.2-3.2,7.2-7.2s-3.2-7.2-7.2-7.2s-7.2,3.2-7.2,7.2S34.5,35,38.5,35z"/>
	<path class="st2" d="M48.3,103.1V46.9l0,0l17.3,17.9c1.4,1.5,3.7,1.5,5.2,0.1c1.5-1.4,1.5-3.7,0.1-5.2L50.7,39.5
		c-1.6-1.6-3.8-2.5-6-2.5H32.4c-2.3,0-4.4,0.9-6,2.5L6.2,59.8c-1.4,1.5-1.3,3.8,0.1,5.2c1.5,1.4,3.8,1.4,5.2-0.1L28.8,47v56.2"/>
</g>
</svg>
