<?xml version="1.0" encoding="utf-8"?>
<!-- Generator: Adobe Illustrator 22.0.1, SVG Export Plug-In . SVG Version: 6.00 Build 0)  -->
<svg version="1.1" id="Layer_1" xmlns="http://www.w3.org/2000/svg" xmlns:xlink="http://www.w3.org/1999/xlink" x="0px" y="0px"
	 width="68px" height="68px" viewBox="0 0 68 68" style="enable-background:new 0 0 68 68;" xml:space="preserve">
<style type="text/css">
	.st0{fill:#333333;}
</style>
<g>
	<path class="st0" d="M67.9,23.2c0-1-0.3-2.1-1-2.9l-5.4-6.9c-0.9-1.1-2.3-1.7-3.6-1.7c-0.8,0-1.6,0.2-2.4,0.7l-5.2,3.3
		c-0.6,0.4-1.5,0.6-2.4,0.6c-0.7,0-1.4-0.1-1.8-0.4l-5.1-2.5c-0.8-0.4-1.7-0.6-2.7-0.6c-1.3,0-2.7,0.3-3.8,1.1l-0.6,0.4
		c-0.5-0.2-1.2-0.6-2-1c-1-0.5-2.2-0.7-3.3-0.7c-1.1,0-2.1,0.2-3.1,0.6l-3.5,1.5c-0.6,0.2-1.5,0.4-2.4,0.4c-0.9,0-1.8-0.2-2.4-0.4
		l-3.5-1.5c-0.6-0.3-1.3-0.4-2-0.4c-0.8,0-1.6,0.2-2.3,0.4c-0.7,0.3-1.4,0.7-1.9,1.3l-6.4,7.1c-0.7,0.8-1.1,1.8-1.1,2.8
		c0,1.2,0.5,2.3,1.5,3.2l5.9,5.1l-2.8,2.9c-0.8,0.8-1.2,1.9-1.2,2.9c0,1.1,0.4,2.2,1.3,3L5.4,42c0.5,0.5,1.2,0.8,1.9,1
		c-0.3,0.6-0.5,1.3-0.5,2c0,1.1,0.4,2.2,1.3,3l0,0l0.6,0.5c0.8,0.8,1.9,1.2,2.9,1.2c0.6,0,1.1-0.1,1.6-0.3c0.2,0.7,0.6,1.5,1.2,2
		l0.6,0.5c0.8,0.8,1.9,1.2,2.9,1.2c0.8,0,1.6-0.2,2.3-0.7c0.2,0.7,0.6,1.3,1.1,1.8l0.6,0.5c0.8,0.8,1.9,1.2,2.9,1.2
		c1.1,0,2.2-0.4,3.1-1.3l2.5-2.6l3.4,3.1c0.8,0.8,1.8,1.1,2.9,1.1c1.1,0,2.3-0.4,3.1-1.3l0.5-0.6c0.5-0.5,0.8-1.1,0.9-1.7l1.3,1.2
		c0.8,0.7,1.8,1.1,2.9,1.1c1.1,0,2.3-0.5,3.1-1.3l0.5-0.6c0.6-0.7,1-1.5,1.1-2.3c0.3,0.1,0.7,0.1,1,0.1c1.1,0,2.3-0.5,3.1-1.3
		l0.5-0.6c0.8-0.8,1.1-1.8,1.1-2.9c0-0.3,0-0.6-0.1-0.9c0.9-0.1,1.8-0.5,2.5-1.3l0.5-0.6c0.8-0.8,1.1-1.8,1.1-2.9
		c0-1.1-0.5-2.3-1.3-3.1l-1-0.9l9.1-10.1C67.5,25.5,67.9,24.3,67.9,23.2z M6.4,39.8C6,39.5,5.8,39,5.8,38.4c0-0.5,0.2-0.9,0.5-1.3
		l5.8-6c0.4-0.4,0.9-0.6,1.4-0.6c0.5,0,1,0.2,1.3,0.5l0.6,0.5c0,0,0.6,0.9,0.6,1.4c0,0.4-0.1,0.8-0.3,1.1c0,0-6.2,6.5-6.2,6.5
		c-0.3,0.2-0.7,0.4-1.1,0.4c-0.5,0-1-0.2-1.3-0.5L6.4,39.8z M11.5,47.5c-0.5,0-1-0.2-1.3-0.5l-0.6-0.5l0,0C9.3,46,9.1,45.5,9.1,45
		c0-0.5,0.2-0.9,0.5-1.3c0,0,7.7-8,7.8-8.1c0.4-0.4,0.8-0.5,1.3-0.5c0.5,0,1,0.2,1.3,0.5l0.6,0.5l0,0c0.4,0.4,0.6,0.9,0.6,1.4
		c0,0.5-0.2,0.9-0.5,1.3l-7.7,8C12.6,47.3,12.1,47.5,11.5,47.5z M17.8,50.9c-0.5,0-1-0.2-1.3-0.5l-0.6-0.5c-0.4-0.4-0.6-0.9-0.6-1.4
		c0-0.4,0.1-0.8,0.4-1.2l5.4-5.6c0.4-0.3,0.8-0.5,1.3-0.5c0.5,0,1,0.2,1.3,0.5l0.6,0.5l0,0c0.4,0.4,0.6,0.9,0.6,1.4
		c0,0.5-0.2,0.9-0.5,1.3l-5.1,5.4C18.9,50.7,18.4,50.9,17.8,50.9z M26.2,53.1c-0.4,0.4-0.9,0.6-1.4,0.6c-0.5,0-1-0.2-1.3-0.5
		l-0.6-0.5c-0.4-0.4-0.6-0.9-0.6-1.4c0-0.5,0.2-0.9,0.5-1.3l3.2-3.4c0.4-0.4,0.9-0.6,1.4-0.6c0.5,0,1,0.2,1.3,0.5l0.6,0.5l0,0
		c0.4,0.4,0.6,0.9,0.6,1.4c0,0.5-0.2,0.9-0.5,1.3L26.2,53.1z M57.1,41.8l-0.5,0.6c-0.4,0.4-0.9,0.6-1.4,0.6c-0.5,0-0.9-0.2-1.3-0.5
		l-9.1-8.4l-1.6,1.7l9.7,9c0.4,0.4,0.6,0.9,0.6,1.4c0,0.5-0.2,0.9-0.5,1.3L52.5,48c-0.4,0.4-0.9,0.6-1.4,0.6c-0.5,0-0.9-0.2-1.3-0.5
		l-9.1-8.4l-1.6,1.7l8.1,7.4c0.4,0.4,0.6,0.9,0.6,1.4c0,0.5-0.2,0.9-0.5,1.3l-0.5,0.6c-0.4,0.4-0.9,0.6-1.4,0.6
		c-0.5,0-0.9-0.2-1.3-0.5l-8-7.4h0l0,0l-1.6,1.7l0,0l0,0l0,0l4,3.7c0.4,0.4,0.5,0.8,0.5,1.3c0,0.5-0.2,0.9-0.5,1.3L38,53.4
		c-0.4,0.4-0.9,0.6-1.4,0.6c-0.5,0-0.9-0.2-1.3-0.5l-3.5-3.2c0.3-0.6,0.5-1.2,0.5-1.9c0-1.1-0.4-2.2-1.3-3l-0.6-0.5
		c-0.8-0.8-1.9-1.2-2.9-1.2c-0.1,0-0.2,0-0.2,0c0,0,0,0,0-0.1c0-1.1-1.3-3-1.3-3L25.3,40c-0.6-0.6-1.4-0.9-2.1-1.1
		c0.2-0.5,0.2-0.9,0.2-1.4c0-1.1-0.4-2.2-1.3-3L21.6,34c-0.8-0.8-1.9-1.2-2.9-1.2c-0.1,0-0.2,0-0.4,0c0-1.1-0.5-2.1-1.3-2.9v0
		l-0.6-0.5c-0.8-0.8-1.9-1.2-2.9-1.2c-1.1,0-2.2,0.4-3.1,1.3l-1.4,1.4l-6-5.1c-0.4-0.4-0.6-0.9-0.7-1.4c0-0.4,0.2-0.9,0.5-1.2
		L9.3,16c0.3-0.3,0.6-0.5,1.1-0.7c0.4-0.2,0.9-0.3,1.4-0.3c0.4,0,0.8,0.1,1.1,0.2l3.5,1.5c1,0.4,2.1,0.6,3.3,0.6
		c1.2,0,2.3-0.2,3.3-0.6l3.5-1.5c0.5-0.2,1.4-0.4,2.2-0.4c0.9,0,1.8,0.2,2.3,0.4c0.3,0.2,0.6,0.3,0.9,0.5l-3.6,2.5
		c-1.1,0.8-1.8,2.1-1.8,3.4c0,0.9,0.3,1.7,0.8,2.5l0,0l0.5,0.6c0.9,1.2,2.3,1.8,3.7,1.8c0.8,0,1.6-0.2,2.3-0.6l2.1-1.3
		c0.4-0.3,1.1-0.4,1.8-0.4c0.8,0,1.6,0.2,2.1,0.6l5.9,4.2c1.3,0.9,3.4,2.7,4.6,3.8l6.8,6.3c0.4,0.4,0.6,0.9,0.6,1.4
		C57.6,41,57.5,41.4,57.1,41.8z M65,24.9l-9.1,10l-4.1-3.8c-1.3-1.2-3.4-2.9-4.9-4L41,22.9c-1-0.7-2.2-1-3.4-1c-1,0-2.1,0.2-3,0.8
		L32.5,24c-0.3,0.2-0.7,0.3-1.1,0.3c-0.7,0-1.4-0.3-1.8-0.9l-0.5-0.6l0,0c-0.2-0.3-0.4-0.7-0.4-1.1c0-0.6,0.3-1.1,0.8-1.5l6.3-4.4
		c0.5-0.4,1.5-0.7,2.4-0.7c0.6,0,1.2,0.1,1.7,0.3l5.1,2.5c0.9,0.4,1.9,0.6,2.9,0.6c1.3,0,2.6-0.3,3.6-0.9l5.2-3.3
		c0.3-0.2,0.7-0.3,1.2-0.3c0.7,0,1.4,0.3,1.8,0.8l5.4,6.9c0.3,0.4,0.5,0.9,0.5,1.5C65.6,23.8,65.4,24.5,65,24.9z"/>
</g>
</svg>
