<?xml version="1.0" encoding="utf-8"?>
<!-- Generator: Adobe Illustrator 23.0.6, SVG Export Plug-In . SVG Version: 6.00 Build 0)  -->
<svg version="1.1" xmlns="http://www.w3.org/2000/svg" xmlns:xlink="http://www.w3.org/1999/xlink" x="0px" y="0px"
	 viewBox="0 0 146.9 112.5" style="enable-background:new 0 0 146.9 112.5;" xml:space="preserve">
<style type="text/css">
	.st0{fill:#FFFFFF;}
</style>
<g id="Bag" focusable="false">
</g>
<g id="bonni_bella">
</g>
<g id="Bow">
	<g>
		<path class="st0" d="M123.7,66.7c-2.2,2.1-2.3,5.6-0.2,7.8c0.2,0.2,4.7,5.2,4.4,13c-0.5,13.4-15.7,14.1-18.8,14.1
			c-0.3,0-27.3-0.4-30-34.5c62.7-0.7,67.6-29.3,67.6-38.1c0-7.7-2.9-14.9-8-20.1C133.2,3,125.3,0,116.1,0
			c-14.7,0-33.5,11.4-42.6,33.2C64.4,11.4,45.5,0,30.8,0C21.6,0,13.7,3,8,8.7C2.9,14,0,21.2,0,28.9c0,5.7,1.9,16.6,14.3,25.4
			C25.8,62.4,43.8,66.7,67.6,67c-2.6,34.1-29.7,34.5-30,34.5c-3,0-18.2-0.7-18.8-14.1c-0.3-7.7,4.2-12.7,4.4-13
			c2.1-2.2,2-5.7-0.2-7.7c-2.2-2.1-5.7-2-7.8,0.2c-0.3,0.3-7.9,8.4-7.5,21c0.7,17,15.4,24.6,29.8,24.6c6.7,0,16.8-2.6,25.3-10
			c4.7-4.1,8.1-9,10.5-14.1c2.4,5.1,5.8,10,10.5,14.1c8.5,7.4,18.6,10,25.3,10c14.3,0,29.1-7.6,29.8-24.6c0.5-12.6-7.1-20.6-7.5-21
			C129.4,64.6,125.9,64.6,123.7,66.7z M92.6,23.1c8.2-8.9,17.5-12.1,23.4-12.1c9.9,0,19.8,5.5,19.8,17.9c0,6.3-4.1,26.5-56.6,27.1
			C80.5,39.7,87,29.2,92.6,23.1z M11,28.9C11,16.5,21,11,30.8,11c5.9,0,15.2,3.2,23.4,12.1c5.6,6.1,12.2,16.5,13.4,32.8
			C15.1,55.4,11,35.2,11,28.9z"/>
	</g>
</g>
</svg>
