<?xml version="1.0" encoding="utf-8"?>
<!-- Generator: Adobe Illustrator 22.0.1, SVG Export Plug-In . SVG Version: 6.00 Build 0)  -->
<svg version="1.1" id="Layer_1" xmlns="http://www.w3.org/2000/svg" xmlns:xlink="http://www.w3.org/1999/xlink" x="0px" y="0px"
	 width="68px" height="68px" viewBox="0 0 68 68" style="enable-background:new 0 0 68 68;" xml:space="preserve">
<style type="text/css">
	.st0{fill:#333333;}
	.st1{fill:none;stroke:#333333;stroke-width:4.5354;stroke-linecap:round;stroke-miterlimit:10;}
</style>
<g>
	<path class="st0" d="M42.5,5.4c-14.7,0-31.8,3.9-33.7,14.8H2.2c-1.2,0-2.1,0.9-2.1,2.1V52c0,1.2,0.9,2.1,2.1,2.1h7.7
		c5.4,7.8,25.7,8.5,32.6,8.5c16.4,0,25.4-6,25.4-17v-17c0-10.8-5.2-16.4-15.5-16.9C50.8,7.1,46.6,5.4,42.5,5.4z M8.6,24.5v25.4H4.3
		V24.5H8.6z M53.1,16.1c7.5,0.6,10.6,4.3,10.6,12.6v17c0,8.4-7.1,12.7-21.2,12.7c-14.4,0-29.7-3-29.7-8.5V22.3
		c0-10.1,19.4-12.7,29.7-12.7c2.9,0,6.4,1.1,6.4,6.4L53.1,16.1z"/>
</g>
<path class="st1" d="M51.7,13.7c0,0-7.8-0.1-12.8,5.9"/>
</svg>
