<?xml version="1.0" encoding="utf-8"?>
<!-- Generator: Adobe Illustrator 22.0.1, SVG Export Plug-In . SVG Version: 6.00 Build 0)  -->
<svg version="1.1" xmlns="http://www.w3.org/2000/svg" xmlns:xlink="http://www.w3.org/1999/xlink" x="0px" y="0px" width="68px"
	 height="68px" viewBox="0 0 68 68" style="enable-background:new 0 0 68 68;" xml:space="preserve">
<style type="text/css">
	.st0{display:none;}
	.st1{display:inline;fill:#333333;stroke:#FFFFFF;stroke-width:2.1898;stroke-miterlimit:10;}
	.st2{fill:#333333;stroke:#FFFFFF;stroke-width:1.4173;stroke-miterlimit:10;}
</style>
<g id="Layer_1" class="st0">
	<path class="st1" d="M64.4,3.6c-5.9-5.9-15.6-5.9-21.5,0c0,0,0,0,0,0l-15,15l-2.1-2.1c-1.2-1.2-3.1-1.2-4.3,0L0,37.9
		c-1.2,1.2-1.2,3.1,0,4.3l8.6,8.6c1.2,1.2,3.1,1.2,4.3,0l21.5-21.5c1.2-1.2,1.2-3.1,0-4.3l-2.1-2.1l6.5-6.5c0.4,3.1,1.9,6.2,4.3,8.6
		c2.4,2.4,5.5,3.8,8.6,4.3l-6.5,6.5L43,33.6c-1.2-1.2-3.1-1.2-4.3,0L17.2,55.1c-1.2,1.2-1.2,3.1,0,4.3l8.6,8.6
		c1.2,1.2,3.1,1.2,4.3,0l21.5-21.5c1.2-1.2,1.2-3.1,0-4.3l-2.1-2.1l15-15c0,0,0,0,0,0C70.4,19.1,70.4,9.5,64.4,3.6z M10.7,44.4
		l-4.3-4.3l17.2-17.2l4.3,4.3L10.7,44.4z M27.9,61.6l-4.3-4.3l17.2-17.2l4.3,4.3L27.9,61.6z M47.3,20.7c-3.6-3.6-3.6-9.3,0-12.9l0,0
		c0,0,0,0,0,0c3.6-3.6,9.3-3.6,12.9,0c3.6,3.6,3.6,9.3,0,12.9S50.8,24.3,47.3,20.7z"/>
</g>
<g id="Layer_2">
	<g>
		<path class="st2" d="M66.2,13.5c-2.7-6-8.7-9.8-15.4-9.8c-7.3,0-12.5,4.1-16.8,8.9c-4.1-4.6-10-8.9-16.8-8.9S4.5,7.6,1.8,13.5
			c-3.5,7.9-1.1,17.3,6.5,26.3c7.6,8.7,23.3,22.2,24.1,22.8l1.6,1.6l1.6-1.6c0.5-0.5,16.5-14.1,24.1-22.8S69.8,21.4,66.2,13.5z
			 M55.7,36.3C50,43.1,38.3,53.1,34,56.9c-4.3-3.8-15.7-14.1-21.7-20.6C6.1,29,3.9,21.7,6.6,15.7c1.9-4.1,6-6.5,10.6-6.5
			c6.2,0,11.9,6,14.6,9.5l2.2,2.7l2.2-2.7c4.3-5.7,8.7-9.5,14.6-9.5c4.6,0,8.7,2.4,10.6,6.8C64.1,21.7,61.9,29.3,55.7,36.3z"/>
	</g>
</g>
</svg>
