<?xml version="1.0" encoding="utf-8"?>
<!-- Generator: Adobe Illustrator 22.0.1, SVG Export Plug-In . SVG Version: 6.00 Build 0)  -->
<svg version="1.1" xmlns="http://www.w3.org/2000/svg" xmlns:xlink="http://www.w3.org/1999/xlink" x="0px" y="0px" width="68px"
	 height="68px" viewBox="0 0 68 68" style="enable-background:new 0 0 68 68;" xml:space="preserve">
<style type="text/css">
	.st0{display:none;}
	.st1{display:inline;}
	.st2{fill:#333333;stroke:#333333;stroke-width:1.8921;stroke-miterlimit:10;}
	.st3{fill:#333333;}
</style>
<g id="Layer_1" class="st0">
	<g class="st1">
		<path class="st2" d="M57.3,52.3c-2.3-1.6-5.3-1.9-7.9-1.8c0.6-0.5,1.1-1.1,1.6-1.7c2.4-3.1,3.4-7.1,2.5-10.9L51,27.5
			c-1.3-5.5-6-9.5-11.7-9.9c4-2.9,4.9-8.5,2-12.5c-2.9-4-8.5-4.9-12.5-2s-4.9,8.5-2,12.5c0.5,0.7,1.2,1.4,2,2
			c-5.6,0.4-10.4,4.4-11.7,9.9l-2.4,10.5c-0.9,3.8,0,7.8,2.4,10.9c0.5,0.6,1,1.2,1.6,1.7c-2.6-0.2-5.7,0.1-8.1,1.8
			c-2.1,1.5-3.3,4-3.4,7.2c-0.2,2,0.7,4,2.3,5.3c1.8,1.4,4.6,1.9,7.7,1.9c6.8,0,14.8-2.4,16.7-3c1.8,0.6,9.9,3,16.7,3
			c3,0,5.8-0.5,7.7-1.9c1.7-1.2,2.6-3.2,2.4-5.3C60.6,56.3,59.4,53.8,57.3,52.3z M26.9,10.4c0-4,3.2-7.2,7.2-7.2s7.2,3.2,7.2,7.2
			s-3.2,7.2-7.2,7.2l0,0C30.1,17.5,26.9,14.3,26.9,10.4z M33,62.1c-3.5,1.1-17.4,5-22.2,1.3c-1.2-0.9-1.8-2.3-1.7-3.8
			c0.1-2.7,1-4.6,2.7-5.8c4.1-2.9,11.6-0.7,11.7-0.6h0.1c1.2,0.4,2.5,0.6,3.7,0.6H33L33,62.1L33,62.1z M27.2,51.9
			c-6.1,0-11.1-4.9-11.1-11.1c0-0.8,0.1-1.7,0.3-2.5l2.4-10.4c1.1-5,5.6-8.6,10.8-8.6h8.9c5.2,0,9.6,3.5,10.8,8.6l2.4,10.4
			c1.1,4.7-1,9.5-5.1,12c-3.3-0.3-7.5-3.6-11.1-7.1c2-1.3,6.7-4.3,8.5-7.1c0.3-0.4,0.1-1-0.3-1.2c-0.4-0.3-0.9-0.1-1.2,0.2
			c-1.8,2.7-6.7,5.8-8.3,6.8c-2.1-2.2-4.2-4.5-6.1-6.9c-0.3-0.4-0.8-0.5-1.2-0.2c-0.4,0.3-0.5,0.8-0.2,1.2c0,0,0,0.1,0.1,0.1
			c0.4,0.5,9.6,12.3,17.2,15.3h-0.1c-1,0.3-1.9,0.4-2.9,0.4L27.2,51.9L27.2,51.9z M57.3,63.4c-5,3.8-19.3-0.4-22.5-1.3v-8.4H41
			c1.5,0,3-0.3,4.5-0.8c2-0.5,7.5-1.5,10.8,0.9c1.7,1.2,2.6,3.1,2.7,5.8C59.1,61.1,58.5,62.5,57.3,63.4z"/>
	</g>
</g>
<g id="Layer_1_copy">
	<g>
		<g>
			<path class="st3" d="M33.5,3.5C40.3,3.5,45.8,9,45.8,16c0,4.4-2.1,8.2-5.9,10.6c-2,1.3-4,1.9-6.2,1.9c-2.1,0-4.3-0.7-6.2-1.9l0,0
				l0,0c-3.5-2.1-5.8-6.2-6.2-10.6C21.2,8.9,26.6,3.5,33.5,3.5 M33.5,0c-8.8,0-15.8,7.1-15.8,16c0.4,5.8,3.5,10.9,7.9,13.5
				c2.4,1.6,5.3,2.4,8.1,2.4c3.1,0,5.7-0.9,8.1-2.4c4.6-2.9,7.5-7.8,7.5-13.5C49.3,7.1,42.3,0,33.5,0L33.5,0z"/>
		</g>
		<g>
			<path class="st3" d="M50.4,40.2c7.2,0,14.1,7.1,14.1,14.7v23.8v4.2v3.8c0,2.8-2.2,4.9-3.6,5.9c-1.3,1-2.7,1.7-4.2,2.2v-8.1v-8
				V58.2v-3.5h-3.5h-5.3h-3.5v3.5V96H23.7V58.9v-0.7v-3.5h-3.5h-0.4h-4.8h-3.5v3.5v36.3c-2.1-0.7-4.2-1.9-5.7-3.4
				c-1-1-2.1-2.6-2.1-4.5l0-0.1v-0.1v-8.9V54.5c0-3.5,1.4-7.1,3.9-9.8c2-2,5.5-4.5,10.2-4.5h5.5H50.4 M50.4,36.7H23.1h-5.5
				c-5.1,0-9.5,2.2-12.8,5.6C2,45.4,0,49.8,0,54.5v23.1v8.9c-0.2,6.9,8.3,12.2,14.9,12.2V58.2h4.8h0.4v0.7v40.6h27.7V58.2h5.3v20.4
				v8v12.2c6.6,0,14.9-5.3,14.9-12.2v-3.8v-4.2V54.9C68,45.8,60,36.7,50.4,36.7L50.4,36.7z"/>
		</g>
	</g>
</g>
</svg>
