<?xml version="1.0" encoding="utf-8"?>
<!-- Generator: Adobe Illustrator 22.1.0, SVG Export Plug-In . SVG Version: 6.00 Build 0)  -->
<svg version="1.1" id="Layer_1" xmlns="http://www.w3.org/2000/svg" xmlns:xlink="http://www.w3.org/1999/xlink" x="0px" y="0px"
	 width="68px" height="68px" viewBox="0 0 68 68" style="enable-background:new 0 0 68 68;" xml:space="preserve">
<style type="text/css">
	.st0{display:none;fill:none;}
	.st1{fill:#333333;stroke:#333333;stroke-width:0.5669;stroke-miterlimit:10;}
	.st2{fill:none;stroke:#333333;stroke-width:3.4016;stroke-miterlimit:10;}
</style>
<rect x="-16" y="-16" class="st0" width="100" height="100"/>
<path class="st1" d="M34,21.2c-8.7,0-15.8,7-15.8,15.8s7,15.8,15.8,15.8s15.8-7,15.8-15.8S42.7,21.2,34,21.2L34,21.2z M34,49.1
	c-6.7,0-12.2-5.4-12.2-12.2S27.3,24.7,34,24.7s12.2,5.5,12.2,12.2S40.7,49.1,34,49.1L34,49.1z M34,14.9c1.1,0,2-0.9,2-2V5.7
	c0-1.1-0.9-2-2-2s-2,0.9-2,2v7.3C32,14.1,32.9,14.9,34,14.9z M15.7,21.4c0.4,0.4,0.9,0.6,1.4,0.6c0.5,0,1-0.2,1.4-0.6
	c0.8-0.8,0.8-2.1,0-2.8l-5.1-5.1c-0.8-0.8-2.1-0.8-2.8,0l0,0c-0.8,0.8-0.8,2.1,0,2.8l0,0L15.7,21.4L15.7,21.4z M12,36.9
	c0-1.1-0.9-2-2-2H2.8c-1.1,0-2,0.9-2,2c0,1.1,0.9,2,2,2H10C11.1,38.9,12,38,12,36.9z M65.2,34.9h-7.3c-1.1,0-2,0.9-2,2
	c0,1.1,0.9,2,2,2h7.3c1.1,0,2-0.9,2-2C67.2,35.8,66.3,34.9,65.2,34.9z M50.9,22c0.5,0,1-0.2,1.4-0.6l5.1-5.1c0.8-0.8,0.8-2.1,0-2.8
	c-0.8-0.8-2.1-0.8-2.8,0l0,0l-5.1,5.1c-0.8,0.8-0.8,2.1,0,2.8l0,0C49.9,21.8,50.4,22,50.9,22z"/>
<g id="Layer_2_1_">
	<line class="st2" x1="68" y1="62.9" x2="0" y2="62.9"/>
</g>
</svg>
