<?xml version="1.0" encoding="utf-8"?>
<!-- Generator: Adobe Illustrator 22.0.1, SVG Export Plug-In . SVG Version: 6.00 Build 0)  -->
<svg version="1.1" id="Layer_1" xmlns="http://www.w3.org/2000/svg" xmlns:xlink="http://www.w3.org/1999/xlink" x="0px" y="0px"
	 width="68px" height="68px" viewBox="0 0 68 68" style="enable-background:new 0 0 68 68;" xml:space="preserve">
<style type="text/css">
	.st0{fill:#333333;}
</style>
<path class="st0" d="M64.8,19.6C56.9,2.6,36.6-4.7,19.6,3.2C2.6,11.1-4.7,31.4,3.2,48.4s28.2,24.4,45.2,16.4
	C65.4,56.9,72.7,36.6,64.8,19.6z M20.7,5.5c2.6-1.2,5.4-2.1,8.1-2.5c-0.3,0.4-0.8,0.9-1.4,1.4c-1.4,1.1-3.3,2.4-5.6,3.4
	c-3.2,1.5-6.3,2.3-8,2.3c-0.1,0-0.1,0-0.2,0C15.7,8.3,18.1,6.8,20.7,5.5z M11.8,11.8c0.6,0.3,1.3,0.4,2,0.4c2.3,0,5.5-0.9,8.9-2.5
	c2.4-1.1,4.5-2.4,6-3.7C30,4.9,31,3.9,31.3,2.7c0.9-0.1,1.8-0.1,2.7-0.1c2.3,0,4.6,0.3,6.9,0.8c-0.1,1.6-1.5,3.9-4,6.2
	c-2.6,2.5-6.4,5.1-10.9,7.2c-5.6,2.6-11,3.9-15,3.9c-2.2,0-3.9-0.4-4.9-1.1C7.6,16.7,9.5,14.1,11.8,11.8z M5.2,21.4
	c1.5,0.9,3.5,1.3,5.8,1.3c4.4,0,10-1.4,15.8-4.1c4.7-2.2,8.6-4.8,11.5-7.5c2.5-2.4,4.2-4.8,4.6-7.2c2.3,0.7,4.5,1.6,6.6,2.8
	c0,0.3,0.1,0.6,0.1,0.9c0.1,5.3-7.5,13.7-19,19c-6.6,3.1-13.2,4.6-18.4,4.6c-4.3,0-7.5-1.1-9-2.9C3.6,25.9,4.3,23.6,5.2,21.4z
	 M2.6,34c0-1.1,0.1-2.2,0.2-3.3c2.2,1.7,5.6,2.5,9.4,2.5c5.6,0,12.4-1.6,19.2-4.8C43,22.9,51.1,14.9,51.6,8c2.6,1.8,5,3.9,7,6.4
	c0,0.1,0,0.3,0,0.4c0,3-2.2,7-6.3,11c-4.1,4-9.9,8-16.8,11.3c-8.3,3.9-16.5,5.8-22.7,5.8c-4.4,0-7.7-1-9.5-2.7
	C2.8,38.2,2.6,36.1,2.6,34z M8.7,52.6c-1.2-1.6-2.3-3.4-3.2-5.3c-0.6-1.3-1.1-2.7-1.5-4c2.3,1.2,5.3,1.7,8.7,1.7
	c6.6,0,15.1-2,23.6-6c7.1-3.3,13.1-7.4,17.4-11.7c3.5-3.5,5.9-7,6.7-10.3c0.8,1.2,1.5,2.5,2.1,3.8c0.9,1.9,1.6,3.9,2,5.8
	c-0.7,2.8-2.9,6.2-6.3,9.6c-4.3,4.2-10.4,8.4-17.6,11.8c-8.7,4.1-17.3,6.1-23.8,6.1C13.4,54.1,10.7,53.6,8.7,52.6z M47.3,62.5
	c-4.3,2-8.8,3-13.3,3c-1.2,0-2.5-0.1-3.7-0.2c4.9-0.8,10.3-2.5,15.9-5c5.5-2.6,10.3-5.7,14-8.9C57.1,56,52.8,59.9,47.3,62.5z
	 M61,47.7c-3.8,3.8-9.3,7.5-15.7,10.5c-7.7,3.6-15.4,5.4-21.2,5.4c-0.1,0-0.2,0-0.4,0c-4.7-1.6-9.1-4.4-12.6-8.1
	c1.7,0.4,3.5,0.6,5.5,0.6c7,0,15.8-2.1,24.7-6.3c7.4-3.5,13.7-7.8,18.2-12.2c2.4-2.4,4.3-4.9,5.6-7.2c0.1,1.2,0.2,2.4,0.2,3.6
	c0,3.9-0.7,7.7-2.1,11.3C62.6,46.1,61.9,46.9,61,47.7z"/>
</svg>
