<?xml version="1.0" encoding="utf-8"?>
<!-- Generator: Adobe Illustrator 22.1.0, SVG Export Plug-In . SVG Version: 6.00 Build 0)  -->
<svg version="1.1" id="Layer_1" xmlns="http://www.w3.org/2000/svg" xmlns:xlink="http://www.w3.org/1999/xlink" x="0px" y="0px"
	 width="68px" height="68px" viewBox="0 0 68 68" style="enable-background:new 0 0 68 68;" xml:space="preserve">
<style type="text/css">
	.st0{fill:#333333;stroke:#FFFFFF;stroke-width:0.9921;stroke-miterlimit:10;}
</style>
<g>
	<path class="st0" d="M66.5,3.4c0-1-0.7-1.8-1.6-2.1C64,0.9,63,1.2,62.3,1.9l-7,7C42.2-2.4,22.4-1.9,10,10.5c-13,13-13,34.1,0,47
		c6.5,6.5,15,9.7,23.6,9.7s17.1-3.2,23.6-9.7c1-1,1-2.5,0-3.4l-8.9-8.6c-0.9-0.9-2.4-0.9-3.2,0c-6.4,6.4-16.8,6.4-23.1,0
		c-3.1-3.1-4.8-7.2-4.8-11.5s1.7-8.5,4.8-11.5c5.8-5.8,15-6.4,21.4-1.5l-6.5,6.5c-0.6,0.6-0.8,1.6-0.6,2.5c0.3,0.9,1.1,1.4,2,1.5
		l26.9,1.1c0.7,0,1.4-0.2,1.8-0.7s0.8-1.2,0.7-1.8L66.5,3.4z M43.8,27l4.5-4.5c0.9-0.9,0.9-2.4,0-3.2c-8.2-8.2-21.5-8.2-29.7,0
		c-4,4-6.2,9.2-6.2,14.8s2.2,10.9,6.2,14.8c7.6,7.6,19.7,8.1,27.9,1.6l5.4,5.4c-11.2,9.4-27.9,8.8-38.4-1.6
		C2.4,43.2,2.4,25.1,13.5,14C19,8.4,26.3,5.6,33.6,5.6S48.1,8.4,53.7,14c1,1,2.5,1,3.4,0l4.8-4.8l0.9,18.3L43.8,27z"/>
</g>
</svg>
