<?xml version="1.0" encoding="utf-8"?>
<!-- Generator: Adobe Illustrator 22.0.1, SVG Export Plug-In . SVG Version: 6.00 Build 0)  -->
<svg version="1.1" id="Layer_1" xmlns="http://www.w3.org/2000/svg" xmlns:xlink="http://www.w3.org/1999/xlink" x="0px" y="0px"
	 width="68px" height="68px" viewBox="0 0 68 68" style="enable-background:new 0 0 68 68;" xml:space="preserve">
<style type="text/css">
	.st0{fill:#333333;stroke:#FFFFFF;stroke-width:2.1898;stroke-miterlimit:10;}
</style>
<path class="st0" d="M64.4,3.6c-5.9-5.9-15.6-5.9-21.5,0c0,0,0,0,0,0l-15,15l-2.1-2.1c-1.2-1.2-3.1-1.2-4.3,0L0,37.9
	c-1.2,1.2-1.2,3.1,0,4.3l8.6,8.6c1.2,1.2,3.1,1.2,4.3,0l21.5-21.5c1.2-1.2,1.2-3.1,0-4.3l-2.1-2.1l6.5-6.5c0.4,3.1,1.9,6.2,4.3,8.6
	c2.4,2.4,5.5,3.8,8.6,4.3l-6.5,6.5L43,33.6c-1.2-1.2-3.1-1.2-4.3,0L17.2,55.1c-1.2,1.2-1.2,3.1,0,4.3l8.6,8.6c1.2,1.2,3.1,1.2,4.3,0
	l21.5-21.5c1.2-1.2,1.2-3.1,0-4.3l-2.1-2.1l15-15c0,0,0,0,0,0C70.4,19.1,70.4,9.5,64.4,3.6z M10.7,44.4l-4.3-4.3l17.2-17.2l4.3,4.3
	L10.7,44.4z M27.9,61.6l-4.3-4.3l17.2-17.2l4.3,4.3L27.9,61.6z M47.3,20.7c-3.6-3.6-3.6-9.3,0-12.9l0,0c0,0,0,0,0,0
	c3.6-3.6,9.3-3.6,12.9,0c3.6,3.6,3.6,9.3,0,12.9S50.8,24.3,47.3,20.7z"/>
</svg>
