<?xml version="1.0" encoding="utf-8"?>
<!-- Generator: Adobe Illustrator 22.0.1, SVG Export Plug-In . SVG Version: 6.00 Build 0)  -->
<svg version="1.1" id="Layer_1" xmlns="http://www.w3.org/2000/svg" xmlns:xlink="http://www.w3.org/1999/xlink" x="0px" y="0px"
	 width="68px" height="68px" viewBox="0 0 68 68" style="enable-background:new 0 0 68 68;" xml:space="preserve">
<style type="text/css">
	.st0{fill:#333333;stroke:#333333;stroke-width:0.9917;stroke-miterlimit:10;}
</style>
<g>
	<path class="st0" d="M67.7,47.4L67.7,47.4c-0.1-0.1-0.1-0.1-0.1-0.2l0,0c0,0,0-0.1-0.1-0.1l0,0l0,0c-0.4-0.5-1-0.7-2.4-1.5
		C59.7,43,47.1,31.7,45.6,12.8l0-0.1c-0.2-1.1-1-1.9-1.9-2.2c-1-0.3-2.1,0.1-2.7,0.9c-2.5,3-7,6.4-11.6,5.9
		c-3.6-0.3-7.7-6-10.3-10.7c-0.6-1.2-2.9-1.9-4.3-2c-1.9,0-3.7,0.9-4.8,2.6c-0.8,1.6-0.6,7.1-1.2,8.2c-1,1.6-3.6,7.8-4.5,9.3l0,0
		l0,0l0,0l-3.5,7.2c-0.7,1.2-0.9,2.5-0.4,3.8C0.7,37,1.5,38,2.5,38.6c0.4,0.3,4.9,3.1,25.8,15.6c9.6,5.8,17,7,26.6,7.2
		c5.7,0.1,9.4-1.3,11.1-4.2C67.3,55,68.3,48.5,67.7,47.4z M12.4,8.6c0.5-0.7,1.4-1.2,2.2-1.1l0,0c0.6,0,0.8,0.4,0.9,0.5
		c3.1,5.6,8.9,11.7,13.5,12.2c5.6,0.6,10.8-3.1,13.9-6.7C44.6,33.2,58,45.4,63.5,48c-1.6,0.7-3.8,1.5-6.5,1.5
		c-10.6,0.2-19.1-5.4-26.5-10.4l-0.6-0.5c-4.7-3-14.8-9.2-22.4-13.7c0.7-1.1,2.9-6.8,3.6-8C12,14.9,11.5,10.2,12.4,8.6z M54.9,58.6
		c-9.3-0.2-16.1-1.3-25.1-6.8C8.1,38.9,4.1,36.3,4,36.3L4,36.2c-0.4-0.3-0.8-0.6-0.9-1.2c-0.2-0.5-0.1-1.1,0.2-1.5L6,27.3
		c7.6,4.7,17.6,10.7,22.3,13.7l0.6,0.5c7.6,5,16.1,10.6,27,10.8c0.4,0,0.7,0,1.1,0c3.7,0,6.7-1.2,8.5-2.2c0,0.5-1.6,5.1-2,5.6
		C62.4,57.7,59.5,58.7,54.9,58.6z"/>
</g>
</svg>
