<?xml version="1.0" encoding="utf-8"?>
<!-- Generator: Adobe Illustrator 22.1.0, SVG Export Plug-In . SVG Version: 6.00 Build 0)  -->
<svg version="1.1" id="Layer_1" xmlns="http://www.w3.org/2000/svg" xmlns:xlink="http://www.w3.org/1999/xlink" x="0px" y="0px"
	 width="68px" height="68px" viewBox="0 0 68 68" style="enable-background:new 0 0 68 68;" xml:space="preserve">
<style type="text/css">
	.st0{fill:none;stroke:#333333;stroke-width:5.6693;stroke-linecap:round;stroke-linejoin:round;stroke-miterlimit:10;}
</style>
<g transform="translate(0,-952.36218)">
	<path class="st0" d="M8.2,984.6c4.3,0.9,6.6,3,8.5,5.7c5.7-2.9,11.1-3.5,16.5-1.4c-0.9-3.5-0.9-6.7-0.9-9.7
		c-0.1-3.3-0.3-6.3-1.6-9.3l-1.5,0.8c-0.5,1.6-1,3-2.3,4.1c-1.4,1.1-2.8,0.9-4.2,0.1c-1.8-1.2-3.8-2.4-5.3-4.1c0,0,0-0.1-0.1-0.1
		c-1.5-2.1-3.1-4.9-3-7.7c0-0.5,0.3-0.9,0.7-1.1c4.5-2.8,10.3-5,16.8-6.3c0.6-0.2,0.9,0,1.3,0.3l0,0c15.4,15.7,24.1,27.3,24.8,46.9
		c0.3,0.6,0.7,1.2,1,2c0.8,1.4,1.3,3.3,0,4.8c-1.9,2-4.7,3-7.2,3.3c-10.4,3.6-26.1,7.2-37.5,0.9"/>
</g>
</svg>
