<?xml version="1.0" encoding="utf-8"?>
<!-- Generator: Adobe Illustrator 22.1.0, SVG Export Plug-In . SVG Version: 6.00 Build 0)  -->
<svg version="1.1" id="Layer_1" xmlns="http://www.w3.org/2000/svg" xmlns:xlink="http://www.w3.org/1999/xlink" x="0px" y="0px"
	 width="68px" height="68px" viewBox="0 0 68 68" style="enable-background:new 0 0 68 68;" xml:space="preserve">
<style type="text/css">
	.st0{fill:#333333;}
</style>
<g>
	<path class="st0" d="M68.3,51.8c-2.8,0-4.1-1-5.7-2.3c-1.8-1.4-4-3.2-8.1-3.2c-0.2,0-0.3,0-0.5,0l-2.5-3.7c1.1,0.3,2.2,0.5,3.4,0.5
		c7.1,0,12.8-5.7,12.8-12.8S62,17.5,55,17.5c-6.6,0-12.1,5.1-12.7,11.5L31.9,14h17.8c2,0,3.8-0.8,5.2-2.3c1.3-1.4,2-3.4,1.8-5.4
		C56.3,2.8,53.1,0,49.5,0H17.9c-3.8,0-7,3-7.2,6.7c-0.1,1.7,1.3,4.5,1.7,5.3c0.2,0.5,0.5,0.9,0.7,1.4l8,17.6v0.1
		c0.3,0.5,0.1,1.1-0.4,1.4L1.1,46.4c-0.5-0.1-1-0.1-1.6-0.1c-4.1,0-6.3,1.8-8.1,3.2c-1.6,1.3-2.9,2.3-5.7,2.3
		c-1.1,0-1.9,0.9-1.9,1.9c0,1.1,0.9,1.9,1.9,1.9c4.1,0,6.3-1.8,8.1-3.2c1.6-1.3,2.9-2.3,5.7-2.3s4.1,1,5.7,2.3
		c1.8,1.4,4,3.2,8.1,3.2s6.3-1.8,8.1-3.2c1.6-1.3,2.9-2.3,5.7-2.3s4.1,1,5.7,2.3c1.8,1.4,4,3.2,8.1,3.2s6.3-1.8,8.1-3.2
		c1.6-1.3,2.9-2.3,5.7-2.3s4.1,1,5.7,2.3c1.8,1.4,4,3.2,8.1,3.2c1.1,0,1.9-0.9,1.9-1.9C70.2,52.7,69.3,51.8,68.3,51.8z M55,21.4
		c4.9,0,9,4,9,9c0,4.9-4,9-9,9c-4.9,0-9-4-9-9S50,21.4,55,21.4z M46.4,49.5c-1.6,1.3-2.9,2.3-5.7,2.3s-4.1-1-5.7-2.3
		c-1.8-1.4-4-3.2-8.1-3.2s-6.3,1.8-8.1,3.2c-1.6,1.3-2.9,2.3-5.7,2.3s-4.1-1-5.7-2.3c-0.6-0.5-1.3-1-2-1.5l17.3-12.1
		c2.1-1.4,2.9-4.1,1.7-6.3L16.5,12c-0.2-0.5-0.5-1.1-0.8-1.6C15,9,14.4,7.4,14.4,7c0.1-1.7,1.6-3,3.3-3h31.6c1.7,0,3.2,1.2,3.3,2.8
		c0.1,0.9-0.2,1.8-0.8,2.4c-0.6,0.7-1.4,1-2.3,1H31.3c-1.3,0-2.5,0.7-3.1,1.9s-0.5,2.5,0.2,3.6L50,47.2
		C48.5,47.8,47.4,48.7,46.4,49.5z"/>
	<path class="st0" d="M68.3,64.1c-2.8,0-4.1-1-5.7-2.3c-1.8-1.4-4-3.2-8.1-3.2s-6.3,1.8-8.1,3.2c-1.6,1.3-2.9,2.3-5.7,2.3
		s-4.1-1-5.7-2.3c-1.8-1.4-4-3.2-8.1-3.2s-6.3,1.8-8.1,3.2c-1.6,1.3-2.9,2.3-5.7,2.3s-4.1-1-5.7-2.3c-1.8-1.4-4-3.2-8.1-3.2
		s-6.3,1.8-8.1,3.2c-1.6,1.3-2.9,2.3-5.7,2.3c-1.1,0-1.9,0.9-1.9,1.9s1.1,2,2.1,2c4.1,0,6.3-1.8,8.1-3.2c1.6-1.3,2.9-2.3,5.7-2.3
		s4.1,1,5.7,2.3c1.8,1.4,4,3.2,8.1,3.2s6.3-1.8,8.1-3.2c1.6-1.3,2.9-2.3,5.7-2.3s4.1,1,5.7,2.3c1.8,1.4,4,3.2,8.1,3.2
		s6.3-1.8,8.1-3.2c1.6-1.3,2.9-2.3,5.7-2.3s4.1,1,5.7,2.3c1.8,1.4,4,3.2,8.1,3.2c1.1,0,1.9-0.9,1.9-1.9S69.3,64.1,68.3,64.1z"/>
</g>
</svg>
