<?xml version="1.0" encoding="utf-8"?>
<!-- Generator: Adobe Illustrator 22.1.0, SVG Export Plug-In . SVG Version: 6.00 Build 0)  -->
<svg version="1.1" id="Layer_2" xmlns="http://www.w3.org/2000/svg" xmlns:xlink="http://www.w3.org/1999/xlink" x="0px" y="0px"
	 width="68px" height="68px" viewBox="0 0 68 68" style="enable-background:new 0 0 68 68;" xml:space="preserve">
<style type="text/css">
	.st0{fill:#333333;}
</style>
<g>
	<g>
		<path class="st0" d="M46.6,10.4c-11.7,0-21.2,9.5-21.2,21.2c0,12.9,17.6,36.3,21.2,36.3c3.7,0,21.2-23.4,21.2-36.3
			C67.8,19.9,58.3,10.4,46.6,10.4z M46.6,40.9c-5,0-9.1-4.1-9.1-9.1s4.1-9.1,9.1-9.1s9.1,4.1,9.1,9.1S51.7,40.9,46.6,40.9z"/>
	</g>
	<g>
		<g>
			<path class="st0" d="M23,60.9c-5.4,0-22.8-25.1-22.8-37.9C0.2,10.3,10.4,0.1,23,0.1c5,0,9.8,1.6,13.8,4.7
				c0.7,0.5,0.9,1.6,0.3,2.3c-0.5,0.7-1.6,0.9-2.3,0.3c-3.4-2.6-7.5-4-11.8-4c-10.8,0-19.6,8.8-19.6,19.6
				c0,12.2,16.3,33.3,19.6,34.7c0.3-0.2,1.6-0.9,4.2-3.8c0.6-0.7,1.6-0.7,2.3-0.2c0.7,0.6,0.7,1.6,0.2,2.3
				C25.2,60.9,23.7,60.9,23,60.9z"/>
		</g>
		<g>
			<path class="st0" d="M19.5,33.1c-0.2,0-0.4,0-0.6-0.1c-4-1.7-6.6-5.6-6.6-9.9c0-5.9,4.8-10.7,10.7-10.7c0.9,0,1.6,0.7,1.6,1.6
				c0,0.9-0.7,1.6-1.6,1.6c-4.1,0-7.5,3.4-7.5,7.5c0,3,1.8,5.7,4.6,6.9c0.8,0.3,1.2,1.3,0.9,2.1C20.7,32.8,20.1,33.1,19.5,33.1z"/>
		</g>
	</g>
</g>
</svg>
