<?xml version="1.0" encoding="utf-8"?>
<!-- Generator: Adobe Illustrator 22.1.0, SVG Export Plug-In . SVG Version: 6.00 Build 0)  -->
<svg version="1.1" id="Layer_1" xmlns="http://www.w3.org/2000/svg" xmlns:xlink="http://www.w3.org/1999/xlink" x="0px" y="0px"
	 width="68px" height="68px" viewBox="0 0 68 68" style="enable-background:new 0 0 68 68;" xml:space="preserve">
<style type="text/css">
	.st0{fill:#333333;stroke:#333333;stroke-width:0.7016;stroke-miterlimit:10;}
</style>
<g>
	<path class="st0" d="M63.1,67.6H13.9c-0.6,0-1.1-0.5-1.1-1.1c0-0.6,0.5-1.1,1.1-1.1h49.2c1.2,0,2.2-1,2.2-2.2v-47
		c0-1.2-1-2.2-2.2-2.2H27.3c-0.6,0-1.1-0.5-1.1-1.1c0-0.6,0.5-1.1,1.1-1.1h35.8c2.5,0,4.5,2,4.5,4.5v47
		C67.6,65.6,65.6,67.6,63.1,67.6z"/>
	<path class="st0" d="M27.3,15.5c-0.6,0-1.1-0.5-1.1-1.1c0-6.5-5.3-11.7-11.7-11.7S2.7,7.9,2.7,14.4c0,0.6-0.5,1.1-1.1,1.1
		S0.4,15,0.4,14.4c0-7.7,6.3-14,14-14s14,6.3,14,14C28.4,15,27.9,15.5,27.3,15.5z"/>
	<path class="st0" d="M14.4,67.6c-7.7,0-14-6.3-14-14s6.3-14,14-14s14,6.3,14,14c0,0.6-0.5,1.1-1.1,1.1s-1.1-0.5-1.1-1.1
		c0-6.5-5.3-11.7-11.7-11.7S2.7,47.1,2.7,53.6s5.3,11.7,11.7,11.7l0,0c0.6,0,1.1,0.5,1.1,1.1C15.5,67.1,15,67.6,14.4,67.6z"/>
	<path class="st0" d="M1.6,55.3c-0.6,0-1.1-0.5-1.1-1.1V13.9c0-0.6,0.5-1.1,1.1-1.1s1.1,0.5,1.1,1.1v40.3
		C2.7,54.8,2.2,55.3,1.6,55.3z"/>
	<path class="st0" d="M27.3,54.1c-0.6,0-1.1-0.5-1.1-1.1V13.9c0-0.6,0.5-1.1,1.1-1.1s1.1,0.5,1.1,1.1V53
		C28.4,53.6,27.9,54.1,27.3,54.1z"/>
	<path class="st0" d="M18.7,63.1c-4.2,0-7.7-3.2-8-7.5c-0.3-3.7,2.5-6.9,6.2-7.2c3.1-0.2,5.7,2.1,6,5.1c0,0.6-0.4,1.2-1,1.2
		c-0.6,0-1.2-0.4-1.2-1c-0.2-1.8-1.7-3.2-3.6-3.1c-2.4,0.2-4.3,2.3-4.1,4.8c0.3,3.2,3.1,5.6,6.3,5.4c4.2-0.3,7.3-3.9,7-8.1
		c0,0,0,0,0,0c0-0.6,0.4-1.1,1-1.2c0.6,0,1.1,0.4,1.2,1c0.4,5.4-3.6,10.1-9,10.5c0,0,0,0,0,0H18.7z"/>
</g>
</svg>
